<svg xmlns="http://www.w3.org/2000/svg" viewBox="0 0 563 563" role="img" aria-label="JG monogram" fill="currentColor">
  <path d="M0,0 L225,0 L217,16 L212,26 L213,384 L225,406 L225,407 L14,407 L14,298 L22,291 L52,261 L60,254 L88,226 L89,226 L89,308 L77,325 L76,326 L75,345 L150,345 L150,62 L54,62 L42,49 L35,41 L23,27 L13,16 L6,8 Z" transform="translate(51,76)"/>
  <path d="M0,0 L211,0 L212,138 L211,150 L137,150 L143,138 L149,128 L150,62 L75,62 L75,345 L150,345 L149,262 L136,275 L129,283 L125,285 L123,289 L116,295 L115,297 L113,297 L113,193 L211,193 L211,407 L0,407 L2,402 L13,382 L13,24 L1,3 Z" transform="translate(290,76)"/>
</svg>
